<svg width="105" height="105" viewBox="0 0 105 105" fill="none" xmlns="http://www.w3.org/2000/svg">
<path fill-rule="evenodd" clip-rule="evenodd" d="M97.1965 94.3131C99.4003 94.3268 101.181 96.1164 101.181 98.3234V98.6158C101.181 100.829 99.386 102.626 97.1709 102.625H7.83065C5.6156 102.625 3.82035 100.829 3.82035 98.6158V98.3234C3.82035 96.1084 5.61558 94.3131 7.83065 94.3131H97.1965ZM20.1897 90.3238H8.38969V56.6602H96.6102V90.3238H84.8102V78.2369C84.8102 73.6041 81.054 69.8487 76.4229 69.8487L76.3596 69.8512V69.8487C71.7286 69.8487 67.9724 73.6041 67.9724 78.2369V90.3238H60.9187V74.2276C60.9187 69.5949 57.1625 65.8395 52.5314 65.8395L52.4681 65.8419V65.8395C47.8371 65.8395 44.0808 69.5949 44.0808 74.2276V90.3238H37.0272V78.2369C37.0272 73.6041 33.271 69.8487 28.6399 69.8487L28.5766 69.8512V69.8487C23.9455 69.8487 20.1893 73.6041 20.1893 78.2369L20.1897 90.3238ZM24.1791 90.3238H33.0382V78.2369C33.0382 75.8071 31.0692 73.8381 28.6403 73.8381H28.5771C26.1481 73.8381 24.1792 75.8072 24.1792 78.2369L24.1791 90.3238ZM48.0707 90.3238H56.9298V74.2276C56.9298 71.7978 54.9608 69.8289 52.5319 69.8289H52.4687C50.0397 69.8289 48.0708 71.7979 48.0708 74.2276L48.0707 90.3238ZM71.9623 90.3238H80.8214V78.2369C80.8214 75.8071 78.8524 73.8381 76.4235 73.8381H76.3603C73.9313 73.8381 71.9624 75.8072 71.9624 78.2369L71.9623 90.3238ZM97.7324 52.6694H7.26832C5.39459 52.6694 3.76846 51.37 3.35666 49.5411C2.94411 47.7122 3.85494 45.8409 5.54915 45.0366L50.4961 23.6879V4.76393C50.4961 3.44294 51.5664 2.3719 52.8865 2.37354H64.9492C67.1643 2.37274 68.9595 4.16877 68.9595 6.38384V14.402C68.9595 16.617 67.1643 18.4123 64.9492 18.4123H54.5054V23.6889L99.4524 45.0376C101.147 45.8419 102.057 47.7124 101.645 49.5421C101.232 51.371 99.6069 52.6704 97.7332 52.6704L97.7324 52.6694ZM52.5004 32.2001C48.6951 32.2001 45.6062 35.289 45.6062 39.095C45.6062 42.8994 48.6945 45.9891 52.5004 45.9891C56.3056 45.9891 59.3945 42.9003 59.3945 39.095C59.3945 35.2898 56.3062 32.2001 52.5004 32.2001ZM52.5004 36.2104C54.0921 36.2104 55.3842 37.5034 55.3842 39.095C55.3842 40.6867 54.092 41.9788 52.5004 41.9788C50.9087 41.9788 49.6166 40.6867 49.6166 39.095C49.6166 37.5034 50.9087 36.2104 52.5004 36.2104Z" fill="black"/>
</svg>
