<svg width="105" height="105" viewBox="0 0 105 105" fill="none" xmlns="http://www.w3.org/2000/svg">
<path d="M76.4982 13.8184H26.2787C25.637 13.8184 25.1042 14.3503 25.1042 14.9928C25.1042 15.6344 25.6362 16.1672 26.2787 16.1672H76.4818C77.1234 16.1672 77.6562 15.6352 77.6562 14.9928C77.6562 14.3503 77.1395 13.8184 76.4978 13.8184H76.4982Z" fill="black"/>
<path d="M76.4982 22.5054H26.2787C25.637 22.5054 25.1042 23.0373 25.1042 23.6798C25.1042 24.3214 25.6362 24.8542 26.2787 24.8542H76.4818C77.1234 24.8542 77.6562 24.3222 77.6562 23.6798C77.6562 23.0373 77.1395 22.5054 76.4978 22.5054H76.4982Z" fill="black"/>
<path d="M76.4982 31.1782H26.2787C25.637 31.1782 25.1042 31.7102 25.1042 32.3526C25.1042 32.9943 25.6362 33.527 26.2787 33.527H76.4818C77.1234 33.527 77.6562 32.9951 77.6562 32.3526C77.6562 31.7102 77.1395 31.1782 76.4978 31.1782H76.4982Z" fill="black"/>
<path d="M8.33846 19.9707C5.28546 19.9707 2.79663 22.4597 2.79663 25.5125V74.6205C2.79663 74.8088 2.8439 74.965 2.9216 75.1212C2.9216 75.1372 2.9216 75.1525 2.93763 75.1525L7.30517 83.6064C7.50865 83.9981 7.91561 84.2481 8.3538 84.2481C8.79199 84.2481 9.19895 83.9973 9.40242 83.6064L13.77 75.1525C13.77 75.1364 13.77 75.1212 13.786 75.1212C13.8645 74.965 13.911 74.808 13.911 74.6205L13.9118 25.5125C13.8805 22.4595 11.3915 19.9707 8.33846 19.9707ZM8.33846 80.5077L5.89598 75.7956H10.7801L8.33846 80.5077ZM11.5323 26.9372H5.14519V25.5129C5.14519 23.7441 6.58553 22.319 8.33907 22.319C10.0927 22.319 11.533 23.7593 11.533 25.5129L11.5323 26.9372Z" fill="black"/>
<path d="M98.5543 42.0576H85.7016L85.7024 9.15284C85.7024 7.33677 84.2156 5.86523 82.3997 5.86523H20.8619C19.0306 5.86523 17.5591 7.33684 17.5591 9.15284V89.0697C17.5591 90.901 19.0459 92.3725 20.8619 92.3725H60.6716V95.5032C60.6716 97.5068 62.2994 99.1506 64.3189 99.1506H98.5711C100.575 99.1506 102.218 97.5228 102.218 95.5032V45.7062C102.203 43.7019 100.575 42.058 98.5551 42.058L98.5543 42.0576ZM60.6702 45.7058V46.4259L25.9792 46.4251C25.3375 46.4251 24.8048 46.9571 24.8048 47.5995V83.9332C24.8048 84.5749 25.3367 85.1076 25.9792 85.1076H60.6702V90.008H20.8605C20.3285 90.008 19.9056 89.585 19.9056 89.0531V9.1526C19.9056 8.62066 20.3285 8.21293 20.8605 8.21293H82.3982C82.9302 8.21293 83.3531 8.6359 83.3531 9.1526V42.0594L64.3018 42.0586C62.2983 42.0586 60.6696 43.7025 60.6696 45.7068L60.6702 45.7058ZM51.1685 70.2044V61.3284H60.5613V70.2044H51.1685ZM60.5613 72.5532V82.7599H51.1685V72.5532H60.5613ZM51.1685 58.9803V48.7735H60.5613V58.9803H51.1685ZM39.1138 70.2042V61.3282H48.8198V70.2042H39.1138ZM48.8198 72.553V82.7597H39.1138V72.553H48.8198ZM39.1138 58.9801V48.7733H48.8198V58.9801H39.1138ZM27.1545 70.204V61.328H36.7819V70.204H27.1545ZM36.7659 72.5527V82.7595H27.1385V72.5527H36.7659ZM27.1545 58.9799V48.7731H36.7819V58.9799H27.1545ZM72.1774 90.9618H67.6375C66.9959 90.9618 66.4631 90.4299 66.4631 89.7874C66.4631 89.1457 66.9951 88.613 67.6375 88.613H72.1774C72.819 88.613 73.3518 89.1449 73.3518 89.7874C73.351 90.4291 72.8343 90.9618 72.1774 90.9618ZM72.1774 83.3692H67.6375C66.9959 83.3692 66.4631 82.8372 66.4631 82.1948C66.4631 81.5531 66.9951 81.0204 67.6375 81.0204H72.1774C72.819 81.0204 73.3518 81.5523 73.3518 82.1948C73.351 82.8364 72.8343 83.3692 72.1774 83.3692ZM72.1774 75.7926H67.6375C66.9959 75.7926 66.4631 75.2606 66.4631 74.6182C66.4631 73.9765 66.9951 73.4438 67.6375 73.4438H72.1774C72.819 73.4438 73.3518 73.9757 73.3518 74.6182C73.351 75.2598 72.8343 75.7926 72.1774 75.7926ZM72.1774 68.2151H67.6375C66.9959 68.2151 66.4631 67.6832 66.4631 67.0407C66.4631 66.3991 66.9951 65.8663 67.6375 65.8663H72.1774C72.819 65.8663 73.3518 66.3983 73.3518 67.0407C73.351 67.6832 72.8343 68.2151 72.1774 68.2151ZM83.6986 90.9624H79.1588C78.5172 90.9624 77.9844 90.4305 77.9844 89.788C77.9844 89.1463 78.5164 88.6136 79.1588 88.6136H83.6986C84.3403 88.6136 84.873 89.1455 84.873 89.788C84.873 90.4297 84.3563 90.9624 83.6986 90.9624ZM83.6986 83.3698H79.1588C78.5172 83.3698 77.9844 82.8379 77.9844 82.1954C77.9844 81.5537 78.5164 81.021 79.1588 81.021H83.6986C84.3403 81.021 84.873 81.5529 84.873 82.1954C84.873 82.8371 84.3563 83.3698 83.6986 83.3698ZM83.6986 75.7932H79.1588C78.5172 75.7932 77.9844 75.2613 77.9844 74.6188C77.9844 73.9771 78.5164 73.4444 79.1588 73.4444H83.6986C84.3403 73.4444 84.873 73.9763 84.873 74.6188C84.873 75.2605 84.3563 75.7932 83.6986 75.7932ZM83.6986 68.2158H79.1588C78.5172 68.2158 77.9844 67.6838 77.9844 67.0414C77.9844 66.3997 78.5164 65.867 79.1588 65.867H83.6986C84.3403 65.867 84.873 66.3989 84.873 67.0414C84.873 67.6838 84.3563 68.2158 83.6986 68.2158ZM95.2208 90.963H90.6809C90.0393 90.963 89.5065 90.4311 89.5065 89.7886C89.5065 89.1469 90.0385 88.6142 90.6809 88.6142H95.2208C95.8624 88.6142 96.3952 89.1461 96.3952 89.7886C96.3952 90.4303 95.8785 90.963 95.2208 90.963ZM95.2208 83.3704H90.6809C90.0393 83.3704 89.5065 82.8385 89.5065 82.196C89.5065 81.5544 90.0385 81.0216 90.6809 81.0216H95.2208C95.8624 81.0216 96.3952 81.5536 96.3952 82.196C96.3952 82.8377 95.8785 83.3704 95.2208 83.3704ZM95.2208 75.7938H90.6809C90.0393 75.7938 89.5065 75.2619 89.5065 74.6194C89.5065 73.9777 90.0385 73.445 90.6809 73.445H95.2208C95.8624 73.445 96.3952 73.9769 96.3952 74.6194C96.3952 75.2611 95.8785 75.7938 95.2208 75.7938ZM95.2208 68.2164H90.6809C90.0393 68.2164 89.5065 67.6844 89.5065 67.042C89.5065 66.4003 90.0385 65.8676 90.6809 65.8676H95.2208C95.8624 65.8676 96.3952 66.3995 96.3952 67.042C96.3952 67.6844 95.8785 68.2164 95.2208 68.2164ZM96.3952 59.3252C96.3952 59.9669 95.8632 60.4996 95.2208 60.4996L67.6377 60.4988C66.9961 60.4988 66.4633 59.9669 66.4633 59.3244V49.0239C66.4633 48.3823 66.9953 47.8495 67.6377 47.8495H95.2208C95.8624 47.8495 96.3952 48.3815 96.3952 49.0239V59.3252Z" fill="black"/>
</svg>
