<svg width="105" height="105" viewBox="0 0 105 105" fill="none" xmlns="http://www.w3.org/2000/svg">
<path d="M20.2129 25.0561C19.3237 25.0561 18.5987 24.3311 18.5987 23.4419L15.3695 23.4411C15.3695 25.5432 16.7242 27.3191 18.5979 27.9873L18.5987 29.8987H21.827V27.9873C23.7016 27.3192 25.0554 25.5432 25.0554 23.4411C25.0554 23.0133 24.8855 22.6016 24.5827 22.2996L18.6994 16.4163C18.931 15.8066 19.5214 15.3693 20.2127 15.3693C21.1019 15.3693 21.8269 16.0942 21.8269 16.9834H25.0552C25.0552 14.8814 23.7006 13.1054 21.8269 12.4373V10.5259H18.5985V12.4373C16.724 13.1062 15.3694 14.8822 15.3694 16.9834C15.3694 17.4112 15.5392 17.823 15.842 18.125L21.7253 24.0083C21.4946 24.6179 20.9034 25.0561 20.2129 25.0561Z" fill="black"/>
<path d="M18.5988 36.2741V55.7293C18.5988 56.6201 19.3222 57.3434 20.213 57.3434H50.8866V64.7472L47.1847 61.0453L44.9016 63.3284L51.3591 69.7859C51.6739 70.1008 52.0873 70.2586 52.5006 70.2586C52.914 70.2586 53.3273 70.1008 53.6422 69.7859L60.0997 63.3284L57.8165 61.0453L54.1147 64.7472V57.3434H84.7882C85.679 57.3434 86.4024 56.6201 86.4024 55.7293V36.2741C94.5487 35.4618 100.932 28.5685 100.932 20.2124C100.932 11.3108 93.69 4.06885 84.7882 4.06885C75.8858 4.06885 68.6438 11.3114 68.6438 20.2132C68.6438 28.571 75.0269 35.4626 83.1732 36.2749V54.1151H54.1137V49.1899C62.26 48.3776 68.643 41.4843 68.643 33.1282C68.643 24.2266 61.4013 16.9847 52.4995 16.9847C43.5977 16.9847 36.3559 24.2264 36.3559 33.1282C36.3559 41.486 42.739 48.3776 50.8853 49.1899L50.8845 54.1151H21.8249V36.2741C29.9713 35.4618 36.3543 28.5685 36.3543 20.2124C36.3543 11.3108 29.1126 4.06885 20.2108 4.06885C11.3089 4.06885 4.06641 11.3114 4.06641 20.2132C4.06641 28.571 10.4503 35.4626 18.5966 36.2741H18.5988ZM71.872 20.2132C71.872 13.0923 77.6663 7.29801 84.7872 7.29801C91.9081 7.29801 97.7024 13.0923 97.7024 20.2132C97.7024 27.3341 91.9081 33.1284 84.7872 33.1284C77.6663 33.1284 71.872 27.3341 71.872 20.2132ZM39.5845 33.1284C39.5845 26.0075 45.3788 20.2132 52.4997 20.2132C59.6206 20.2132 65.4149 26.0075 65.4149 33.1284C65.4149 40.2493 59.6206 46.0436 52.4997 46.0436C45.3779 46.0436 39.5845 40.2493 39.5845 33.1284ZM20.2118 7.29883C27.3327 7.29883 33.127 13.0931 33.127 20.214C33.127 27.335 27.3327 33.1292 20.2118 33.1292C13.0908 33.1292 7.29657 27.335 7.29657 20.214C7.29657 13.0931 13.0908 7.29883 20.2118 7.29883Z" fill="black"/>
<path d="M86.4017 29.8982V27.9868C88.2763 27.3187 89.6301 25.5427 89.6301 23.4406C89.6301 23.0128 89.4602 22.6011 89.1574 22.2991L83.2742 16.4158C83.5049 15.8062 84.0961 15.3688 84.7866 15.3688C85.6758 15.3688 86.4008 16.0938 86.4008 16.983H89.6291C89.6291 14.8809 88.2745 13.1049 86.4008 12.4368L86.4016 10.5254H83.1733V12.4368C81.2979 13.1057 79.9441 14.8817 79.9441 16.983C79.9441 17.4107 80.1139 17.8225 80.4167 18.1245L86.3 24.0078C86.0685 24.6174 85.4781 25.0556 84.7868 25.0556C83.8976 25.0556 83.1726 24.3306 83.1726 23.4414H79.9442C79.9442 25.5435 81.2989 27.3194 83.1726 27.9876V29.8982H86.4017Z" fill="black"/>
<path d="M54.1143 42.8142V40.9028C55.9888 40.2347 57.3426 38.4587 57.3426 36.3566C57.3426 35.9289 57.1728 35.5171 56.87 35.2151L50.9867 29.3318C51.2182 28.7222 51.8086 28.2848 52.5 28.2848C53.3892 28.2848 54.1141 29.0098 54.1141 29.899H57.3425C57.3425 27.7969 55.9878 26.0209 54.1141 25.3528V23.4414H50.8858V25.3528C49.0113 26.0209 47.6575 27.7969 47.6575 29.899C47.6575 30.3267 47.8273 30.7385 48.1301 31.0405L54.0134 36.9238C53.7819 37.5334 53.1907 37.9708 52.5001 37.9708C51.6109 37.9708 50.8859 37.2458 50.8859 36.3566H47.6576C47.6576 38.4587 49.0123 40.2347 50.8859 40.9028L50.8851 42.8142H54.1143Z" fill="black"/>
<path d="M68.6441 92.8592C69.0478 92.8592 69.4348 92.7094 69.732 92.4378L88.2298 75.5566C89.2127 74.5737 89.7551 73.2638 89.7551 71.8724C89.7551 70.4809 89.2127 69.1735 88.2298 68.1881C86.328 66.2864 83.3272 66.1382 81.2459 67.8397L69.5437 77.4143C68.6905 76.0277 67.1605 75.1009 65.4157 75.1009H56.1103L53.2224 73.6557C52.9989 73.5443 52.7505 73.4867 52.5006 73.4867H36.3562C36.0077 73.4867 35.6665 73.5996 35.3877 73.8095L30.7158 77.3126L29.5903 75.7641C29.3371 75.4157 28.9526 75.1809 28.5248 75.1185C28.0971 75.0552 27.6629 75.1633 27.316 75.4237L20.8585 80.267C20.1527 80.7965 20.0029 81.7939 20.5229 82.5077L33.4381 100.266C33.6912 100.615 34.0757 100.849 34.5035 100.912C34.582 100.925 34.6629 100.931 34.7422 100.931C35.0891 100.931 35.4296 100.82 35.7108 100.608L42.1683 95.765C42.3445 95.6328 42.4863 95.471 42.5912 95.2923C42.6962 95.1129 42.7659 94.9158 42.7963 94.7147C42.858 94.3094 42.7659 93.8816 42.5055 93.5251L42.3357 93.2912L43.1952 92.8594L68.6441 92.8592ZM35.0851 97.0417L24.0685 81.8957L27.9435 78.9901L29.069 80.5386L29.0706 80.5402L38.9601 94.1379L35.0851 97.0417ZM42.093 89.8L40.4108 90.6412L32.6161 79.9234L36.8947 76.7149H52.1201L55.008 78.1601C55.2307 78.2714 55.4799 78.3291 55.7298 78.3291H65.4156C66.3048 78.3291 67.0298 79.0541 67.0314 79.8904L67.5866 79.9473C67.5024 79.9874 67.4215 80.0346 67.3462 80.0875L67.0058 80.0955C66.9945 80.2021 66.9945 80.3086 67.0042 80.4136C66.9088 80.5345 66.8327 80.6683 66.775 80.8141C66.751 80.8397 66.7286 80.8654 66.7053 80.8918C66.6621 80.9455 66.6212 80.9999 66.5844 81.0568C66.57 81.068 66.5539 81.0793 66.5411 81.0905C66.5283 81.1001 66.5027 81.1225 66.4746 81.1441C66.4586 81.157 66.4442 81.1698 66.4378 81.1746C66.4041 81.205 66.3697 81.2363 66.3377 81.2683C66.3168 81.2779 66.2944 81.2891 66.2728 81.3004C66.2631 81.3052 66.1838 81.3468 66.1742 81.3516C66.1406 81.3708 66.1061 81.3885 66.0741 81.4101C66.0244 81.4245 65.9724 81.4437 65.9227 81.4638C65.9067 81.4686 65.8794 81.475 65.861 81.4798C65.8578 81.4814 65.8546 81.4814 65.8546 81.4814C65.8065 81.4942 65.7577 81.5102 65.7128 81.5279C65.6175 81.5471 65.5173 81.5583 65.4164 81.5583H54.1156V84.7866H65.4164C65.7392 84.7866 66.0525 84.753 66.3577 84.6929C66.4578 84.6737 66.5563 84.6449 66.6485 84.6072C66.6901 84.5992 66.7342 84.5896 66.7774 84.5768C66.8808 84.5479 66.9857 84.5167 67.0875 84.4814C67.1371 84.4654 67.186 84.4478 67.2341 84.4262H67.2373C67.2389 84.4262 67.2389 84.4246 67.2405 84.4246C67.3502 84.3797 67.4519 84.3244 67.5441 84.2579C67.6042 84.2371 67.6618 84.2131 67.7187 84.185C67.7267 84.1818 67.7363 84.177 67.7444 84.1722C67.77 84.1594 67.8333 84.1257 67.8926 84.0913C67.9406 84.0657 67.9847 84.04 68.0023 84.028C68.0103 84.0232 68.0167 84.02 68.0215 84.0168C68.1297 83.9471 68.2266 83.8654 68.3107 83.7781C68.3916 83.7348 68.4685 83.6827 68.5414 83.6251C68.5623 83.609 68.6079 83.5698 68.6448 83.5378C68.6656 83.5185 68.6848 83.5025 68.6985 83.4913C68.7209 83.4705 68.7417 83.4496 68.7634 83.4264C68.765 83.4248 68.7666 83.4248 68.7666 83.4232C68.7698 83.4232 68.7682 83.42 68.7698 83.42C68.8379 83.3487 68.8971 83.2734 68.9476 83.1941C69.0285 83.1276 69.1038 83.0555 69.1751 82.973L69.1783 82.9698C69.1879 82.9586 69.1992 82.9457 69.2104 82.9313L69.212 82.9297C69.2328 82.9041 69.2536 82.8784 69.2688 82.8584C69.3562 82.7423 69.4251 82.6181 69.4755 82.4907C69.7335 82.2047 69.8905 81.8258 69.8905 81.4093C69.8905 81.3756 69.8905 81.3412 69.8873 81.3075L83.2902 70.343C84.0824 69.6958 85.224 69.7534 85.9457 70.4752C86.319 70.8501 86.5249 71.3468 86.5249 71.8763C86.5249 72.4058 86.3182 72.9033 85.9986 73.2261L68.0182 89.6299H42.814C42.5641 89.6299 42.315 89.6884 42.0923 89.7997L42.093 89.8Z" fill="black"/>
</svg>
