<svg width="105" height="100" viewBox="0 0 105 100" fill="none" xmlns="http://www.w3.org/2000/svg">
<path d="M25.1237 71.0869C27.3333 76.5409 30.1705 81.0559 33.4835 84.3732C27.311 82.6947 21.7008 79.8579 16.915 76.1616C19.4491 74.1838 22.1997 72.5052 25.1237 71.0869Z" fill="black"/>
<path d="M25.1468 14.7464C22.2228 13.3476 19.451 11.6698 16.917 9.71164C21.7041 6.01531 27.3132 3.17864 33.4854 1.5C30.1936 4.7966 27.3341 9.31191 25.1468 14.7464Z" fill="black"/>
<path d="M23.6303 66.9303C19.9699 68.6089 16.5259 70.7066 13.3852 73.1835C5.56655 65.8912 0.562795 56.0214 0.000488281 45.1118H20.0996C20.2729 53.0836 21.5294 60.5163 23.6303 66.9293V66.9303Z" fill="black"/>
<path d="M20.0991 40.7596H0C0.563235 29.8508 5.56581 19.9812 13.3847 12.6689C16.5254 15.1663 19.9469 17.2445 23.6298 18.9221C21.529 25.3547 20.2725 32.7671 20.0991 40.7592V40.7596Z" fill="black"/>
<path d="M24.822 45.1138H44.4011V61.9161C38.7487 62.1354 33.2473 63.2145 28.0272 65.133C26.1652 59.1791 24.9954 52.3663 24.822 45.1138Z" fill="black"/>
<path d="M56.5305 67.1704C54.7329 70.5665 53.7365 74.3827 53.7365 78.3988C53.7365 80.1174 53.9098 81.7754 54.2776 83.4131V83.4326C54.4075 84.1315 54.602 84.8314 54.7975 85.5108C52.9344 85.7906 51.007 85.9904 49.1228 86.0704V66.2715C51.6357 66.3914 54.104 66.6713 56.5305 67.1704Z" fill="black"/>
<path d="M28.0255 20.7588C33.2456 22.6372 38.7459 23.7154 44.3994 23.9357V40.7585H24.8203C24.9936 33.5062 26.1634 26.6924 28.0255 20.7588Z" fill="black"/>
<path d="M49.1224 45.1138H68.7015C68.6149 48.8696 68.2683 52.5455 67.6617 56.1026C64.3044 57.9011 61.3804 60.3381 59.1064 63.2352C55.8579 62.4963 52.5009 62.0567 49.1213 61.8968L49.1224 45.1138Z" fill="black"/>
<path d="M68.7231 40.7594H49.1218V23.9366C54.7965 23.7173 60.2978 22.6382 65.4958 20.7197C67.3799 26.6736 68.5286 33.5069 68.7231 40.7594Z" fill="black"/>
<path d="M44.3997 0.00146484V19.581C39.2662 19.3616 34.2634 18.3625 29.4985 16.5844C33.0723 7.57353 38.4217 1.29988 44.3997 0.00146484Z" fill="black"/>
<path d="M29.4985 69.269C34.2634 67.491 39.2669 66.4918 44.3997 66.2725V85.8715C38.4217 84.5526 33.0725 78.2799 29.4985 69.269Z" fill="black"/>
<path d="M64.0234 16.5829C59.2797 18.361 54.2984 19.3601 49.1223 19.5795V0C55.1003 1.29842 60.4283 7.57207 64.0234 16.5829Z" fill="black"/>
<path d="M73.4461 40.7597C73.2516 32.7683 71.9952 25.3562 69.8943 18.9226C73.5547 17.2441 76.9987 15.1268 80.1394 12.6694C87.958 19.9812 92.9618 29.851 93.5241 40.7601L73.4461 40.7597Z" fill="black"/>
<path d="M76.629 9.71164C74.0728 11.67 71.3232 13.3475 68.377 14.7464C66.1896 9.31191 63.3312 4.79684 60.0605 1.5C66.2119 3.17857 71.821 6.01531 76.629 9.71164Z" fill="black"/>
<path d="M73.4228 45.1138H93.5219C93.3486 48.2507 92.8075 51.3474 91.9189 54.344C88.757 53.2054 85.3344 52.5855 81.7393 52.5855C78.5775 52.5855 75.5668 53.0651 72.7295 53.9639C73.1194 51.0668 73.3573 48.0906 73.4228 45.1138Z" fill="black"/>
<path d="M75.0248 71.7457C75.0248 73.0367 74.0848 74.0833 72.924 74.0833C71.7643 74.0833 70.8232 73.0367 70.8232 71.7457C70.8232 70.4547 71.7643 69.4082 72.924 69.4082C74.0848 69.4082 75.0248 70.4547 75.0248 71.7457Z" fill="black"/>
<path d="M90.5344 82.7339C89.3868 82.7339 88.4336 83.773 88.4336 85.0919C88.4336 86.3708 89.3868 87.4294 90.5344 87.4294C91.682 87.4294 92.6352 86.3903 92.6352 85.0919C92.6352 83.7935 91.7042 82.7339 90.5344 82.7339Z" fill="black"/>
<path d="M92.6341 59.4373L92.6553 59.4178C92.5475 59.3779 92.4175 59.3379 92.3086 59.2784C89.1246 57.7801 85.5298 56.9204 81.7391 56.9204C77.862 56.9204 74.2013 57.7997 70.9964 59.3378C67.336 61.0963 64.2175 63.7332 62.03 66.9499C59.7559 70.2662 58.4348 74.1826 58.4348 78.3782C58.4348 80.1162 58.6726 81.7947 59.0625 83.4129C59.3225 84.3916 59.6469 85.3508 60.059 86.27C60.1024 86.3695 60.1457 86.4894 60.1668 86.6093L60.188 86.5898C63.6753 94.3812 72.014 99.8761 81.7169 99.8761C94.5604 99.8761 105 90.2257 105 78.3781C105.002 70.2055 99.9983 63.0537 92.6341 59.4373ZM66.1025 71.745C66.1025 68.0692 69.1776 65.0521 72.9247 65.0521C76.1954 65.0521 78.9461 67.3302 79.5958 70.3667C79.6825 70.8063 79.7469 71.2654 79.7469 71.745C79.7469 75.4414 76.6718 78.4379 72.9247 78.4379C72.0804 78.4379 71.2572 78.2781 70.4985 77.9983C67.9221 77.0391 66.1025 74.6022 66.1025 71.745ZM74.3545 89.7853C73.8779 90.2845 73.228 90.5447 72.557 90.5447C72.0159 90.5447 71.4738 90.3653 71.0194 90.0251C70.0229 89.2463 69.9151 87.867 70.7595 86.9486L89.1265 67.0298C89.9709 66.1106 91.4661 66.0112 92.4617 66.79C93.4582 67.5494 93.566 68.9277 92.7216 69.8665L74.3545 89.7853ZM90.5332 91.7836C86.7861 91.7836 83.711 88.7871 83.711 85.0907C83.711 81.3944 86.7861 78.3774 90.5332 78.3774C94.2803 78.3774 97.3554 81.3739 97.3554 85.0907C97.3564 88.7666 94.3024 91.7836 90.5332 91.7836Z" fill="black"/>
</svg>
