<svg width="105" height="105" viewBox="0 0 105 105" fill="none" xmlns="http://www.w3.org/2000/svg">
<path d="M81.5595 76.7158H84.7878C85.6786 76.7158 86.402 77.4408 86.402 78.33H89.6303C89.6303 75.6599 87.4569 73.4866 84.787 73.4866V70.2583H81.5587V73.4866C78.8885 73.4866 76.7153 75.6601 76.7153 78.33C76.7153 80.9999 78.8888 83.1733 81.5587 83.1733H84.787C85.6778 83.1733 86.4012 83.8983 86.4012 84.7875C86.4012 85.6767 85.6778 86.4017 84.787 86.4017H81.5587C80.6678 86.4017 79.9445 85.6767 79.9445 84.7875H76.7161C76.7161 87.4576 78.8896 89.6308 81.5595 89.6308V92.8592H84.7878V89.6308C87.4579 89.6308 89.6311 87.4574 89.6311 84.7875C89.6311 82.1176 87.4577 79.9442 84.7878 79.9442H81.5595C80.6686 79.9442 79.9453 79.2192 79.9453 78.33C79.9453 77.4408 80.6678 76.7158 81.5595 76.7158Z" fill="black"/>
<path d="M98.4641 70.914L92.0242 62.6323L99.3172 58.2559V57.3419C99.3172 52.807 96.0704 48.9745 91.5987 48.2303L91.1741 48.159L91.4 47.14L90.772 46.5135C90.3938 46.1354 86.962 42.8125 83.1728 42.8125C79.3836 42.8125 75.9518 46.1346 75.5736 46.5144L74.9456 47.1408L75.1715 48.1598L74.7469 48.2311C70.2752 48.9745 67.0292 52.8076 67.0292 57.3419V58.2559L74.323 62.6307L67.8832 70.9123C65.2483 74.2961 63.8 78.5211 63.8 82.8077V83.1722C63.8 93.8547 72.4902 102.545 83.1728 102.545C93.8553 102.545 102.545 93.8547 102.545 83.1722V82.8077C102.545 78.5211 101.097 74.2961 98.4641 70.914ZM91.0692 51.4156C93.6847 51.8514 95.6553 53.9118 96.0255 56.4656L89.1835 60.5713H88.4152L90.4716 51.3163L91.0692 51.4156ZM83.1728 46.0419C84.8439 46.0419 86.7584 47.322 87.8496 48.2264L85.1067 60.5711H81.2406L78.496 48.2256C79.5871 47.322 81.5017 46.0419 83.1728 46.0419ZM75.2773 51.4156L75.8749 51.3154L77.9313 60.5712H77.163L70.321 56.4656C70.6919 53.9117 72.6618 51.8522 75.2773 51.4156ZM99.3166 83.1719C99.3166 92.0735 92.0749 99.3155 83.173 99.3155C74.2712 99.3155 67.0295 92.0737 67.0295 83.1719V82.8074C67.0295 79.2346 68.2367 75.7154 70.4293 72.8948L77.5045 63.7991H88.8391L95.9152 72.8962C98.1085 75.7152 99.3166 79.236 99.3166 82.8072V83.1719Z" fill="black"/>
<path d="M94.4734 16.9824V42.812H97.7017V16.9824L99.6395 19.566L102.222 17.6282L96.0876 9.44824L89.9529 17.6282L92.5365 19.566L94.4734 16.9824Z" fill="black"/>
<path d="M68.6438 16.9824V42.812H71.8721V16.9824L73.81 19.566L76.3927 17.6282L70.258 9.44824L64.1233 17.6282L66.7069 19.566L68.6438 16.9824Z" fill="black"/>
<path d="M81.5596 10.5245V39.584H84.7879V10.5245L86.7257 13.108L89.3085 11.171L83.1738 2.99023L77.0391 11.171L79.6226 13.108L81.5596 10.5245Z" fill="black"/>
<path d="M39.375 49.4936L38.9328 46.8411C42.657 45.3463 45.4016 41.9273 45.9358 37.8169C49.6664 37.1079 52.5 33.8322 52.5 29.8982C52.5 28.4715 52.0962 27.1489 51.4425 25.9833C52.1315 23.9934 52.5 21.9202 52.5 19.802C52.5 10.2369 44.7183 2.45361 35.1516 2.45361H29.2619C25.2486 2.45361 21.5114 4.365 19.1643 7.59266L18.38 7.9075C13.6079 9.81409 10.5253 14.365 10.5253 19.5032V19.802C10.5253 21.9201 10.8931 23.9934 11.5828 25.9833C10.9291 27.1489 10.5253 28.4715 10.5253 29.8982C10.5253 33.8325 13.3587 37.108 17.0878 37.8186C17.6222 41.9289 20.3666 45.348 24.0909 46.8428L23.6487 49.4953C11.328 51.9441 2.4928 62.6156 2.4805 75.3003L2.45166 102.547H60.5729L60.544 75.3003C60.532 62.6158 51.6967 51.9439 39.3738 49.4932L39.375 49.4936ZM29.4351 60.3669L24.7599 65.042L23.7393 52.795C23.9284 52.7533 24.1206 52.7189 24.3105 52.6804L29.4351 60.3669ZM31.183 73.4871H31.8415L36.221 92.461L31.513 98.3465L26.8042 92.4602L31.183 73.4871ZM31.9096 70.258H31.1005L29.496 64.8706L31.5131 62.8558L33.4661 64.8089L31.9096 70.258ZM33.5903 60.3671L38.714 52.6807C38.9046 52.7176 39.0969 52.7536 39.2852 52.7953L38.2646 65.0423L33.5903 60.3671ZM46.0424 34.4452V25.3545C47.917 26.0226 49.2708 27.7986 49.2708 29.9007C49.2708 32.0027 47.9161 33.777 46.0424 34.4452ZM13.7549 29.899C13.7549 27.797 15.1096 26.021 16.9833 25.3528V34.4435C15.1095 33.777 13.7549 32.0011 13.7549 29.899ZM17.085 21.9812C16.0131 22.1862 15.0133 22.598 14.1354 23.182C13.8918 22.0757 13.7548 20.9477 13.7548 19.8029V19.5041C13.7548 15.6942 16.041 12.32 19.578 10.9044L21.2779 10.225L21.5559 9.80849C23.2767 7.22492 26.1581 5.68376 29.2607 5.68376H35.1503C42.9361 5.68376 49.271 12.0164 49.271 19.803C49.271 20.9493 49.134 22.0757 48.8897 23.182C47.8707 22.5027 46.681 22.0846 45.4089 21.9259C44.184 19.0268 41.312 16.984 37.9701 16.984H31.5126C28.8425 16.984 26.6693 14.8106 26.6693 12.1406H23.4409C23.4409 13.1836 23.6396 14.1794 24.0009 15.0966L22.5028 15.5957C19.6117 16.5594 17.5505 19.0412 17.085 21.9812ZM20.2124 36.3567V23.2526C20.2124 21.1649 21.543 19.3184 23.5249 18.6585L25.8463 17.8854C27.3059 19.3234 29.3079 20.2135 31.5133 20.2135H37.9708C40.6409 20.2135 42.8141 22.3869 42.8141 25.0568V36.3576C42.8141 40.8085 39.1932 44.4293 34.7424 44.4293H28.2849C23.8333 44.4285 20.2124 40.8075 20.2124 36.3567ZM28.2841 47.6575H34.7416C35.0949 47.6575 35.4426 47.6367 35.7862 47.6039L36.2725 50.5215L31.5132 57.6615L26.7524 50.5215L27.2386 47.6039C27.5831 47.6367 27.9308 47.6575 28.2841 47.6575ZM5.71116 75.3041C5.72237 65.4965 11.7521 57.0778 20.581 53.7402L22.123 72.2476L26.9032 67.4675L28.2306 71.9232L23.3087 93.2595L28.1545 99.319H15.37V67.0315H12.1416V99.319H5.68577L5.71116 75.3041ZM50.8858 99.3188V67.0313H47.6574V99.3188H34.8729L39.7195 93.2602L34.7943 71.9177L36.0777 67.4252L40.905 72.2526L42.4471 53.7451C51.2759 57.0817 57.3072 65.4994 57.3169 75.3091L57.3417 99.3196L50.8858 99.3188Z" fill="black"/>
<path d="M37.9701 34.7425V31.5142H25.0549V34.7425C25.0549 38.3041 27.9508 41.2 31.5124 41.2C35.074 41.2 37.9699 38.3041 37.9699 34.7425H37.9701ZM28.2843 34.7425H34.7418C34.7418 36.5233 33.2934 37.9708 31.5135 37.9708C29.7326 37.9708 28.2843 36.5233 28.2843 34.7425Z" fill="black"/>
<path d="M26.6703 25.0564C26.6703 25.948 25.9478 26.6706 25.0562 26.6706C24.1645 26.6706 23.4412 25.948 23.4412 25.0564C23.4412 24.1648 24.1645 23.4414 25.0562 23.4414C25.9478 23.4414 26.6703 24.1648 26.6703 25.0564Z" fill="black"/>
<path d="M39.5842 25.0564C39.5842 25.948 38.8608 26.6706 37.9692 26.6706C37.0776 26.6706 36.355 25.948 36.355 25.0564C36.355 24.1648 37.0776 23.4414 37.9692 23.4414C38.8608 23.4414 39.5842 24.1648 39.5842 25.0564Z" fill="black"/>
</svg>
